<svg id="Layer_1" data-name="Layer 1" xmlns="http://www.w3.org/2000/svg" viewBox="0 0 44.97 18.9"><defs><style>.cls-1{fill:#ef517e;}</style></defs><path class="cls-1" d="M14.93,2.51A1.51,1.51,0,0,1,16.66,1.3a1.5,1.5,0,0,1,.83,1.93,1.51,1.51,0,0,1-1.72,1.22A1.51,1.51,0,0,1,14.93,2.51ZM45,12.68a.54.54,0,0,1-.54.54.55.55,0,1,1,0-1.09A.54.54,0,0,1,45,12.68Zm-.08,0a.46.46,0,0,0-.46-.47.47.47,0,1,0,0,.93A.46.46,0,0,0,44.89,12.68ZM44.18,11a3.81,3.81,0,0,1-4,2.17,2.52,2.52,0,0,1-1.8-.95c-.46-.55.27-.76.3-.64.49,1,1.75,1,1.93-.49a5.45,5.45,0,0,0-1-3.34c-.44,1.19-2.1,5.89-6.84,5.15a3.8,3.8,0,0,1-2.46-1.47A3.1,3.1,0,0,1,27.4,13a1.79,1.79,0,0,1-1.16-1.15A3,3,0,0,1,23.54,13a1.72,1.72,0,0,1-1.24-1.14A2.93,2.93,0,0,1,19.64,13a1.83,1.83,0,0,1-1.37-1.52A3.09,3.09,0,0,1,15.35,13a1.88,1.88,0,0,1-1.22-1.29,2.9,2.9,0,0,1-3,1.35C10,12.7,9.8,11.42,10.11,9.4c.25-1.72.46-2.55.15-2.7-.67-.37-2.72,2.14-2.91,5.73v.33c-.91.49-2.2.4-2.26-.79A11.89,11.89,0,0,1,5.27,9.4c.25-1.72.46-2.55.15-2.7-.67-.37-2.72,2.17-2.91,5.76a2.14,2.14,0,0,0,0,.49c-.95.43-1.93.3-2.09-.8a20.83,20.83,0,0,1,0-3.64,10.91,10.91,0,0,0,0-1.88A2,2,0,0,0,0,5.48C-.29,5.1,3.78,4,3.25,7.65c1.22-1.9,3-2.79,4.1-2.33.86.34.62,1.13.31,3.1,1.16-2.42,3.19-3.59,4.5-3.1.92.34.55,1.32.28,3.49s-.12,2.79.37,2.94.82-.23,1.12-.74A9.11,9.11,0,0,1,14,7.19c.43-1.78,1.59-2,2.49-1.37a.63.63,0,0,1,.24.72,13.6,13.6,0,0,0-.59,2.89c-.15,1.62.19,2.26.68,2.32s1-.5,1.31-1.08a14.2,14.2,0,0,1,.22-3.48c.37-2.41.59-3.58.66-4.59A3.44,3.44,0,0,0,18.5.68c-.2-.36-.07-.75,1.58-.67,1.1,0,2.42.87,1.12,5.68-1.18,4.35-.92,6-.12,6.16a1.2,1.2,0,0,0,1-.61,11.68,11.68,0,0,1,.14-4c.37-2.41.59-3.58.66-4.59A3.37,3.37,0,0,0,22.4.68C22.2.32,22.34-.07,24,0c1.1,0,2.43.87,1.13,5.68-1.18,4.35-.92,6-.13,6.16A1.23,1.23,0,0,0,26,11.23a8.89,8.89,0,0,1,0-4c.43-1.78,1.59-2,2.49-1.37a.65.65,0,0,1,.25.72,12.87,12.87,0,0,0-.6,2.89c-.15,1.62.19,2.26.68,2.32s.9-.35,1.18-.84a3.31,3.31,0,0,1-.2-1.55c.33-4,4-5.14,5.36-4.31,1.07.58,1.16,2,.55,3.12a4,4,0,0,1-3.55,1.72,2,2,0,0,0,2.44,1.87c3.17-.48,4.17-4.09,4.35-4.94-.64-1.07-1-2.08-.55-2.78s2.08-.89,2,.85a8.54,8.54,0,0,1-.22,1.2c.92,1.1,2.73,2.63,2.73,4.38a3.4,3.4,0,0,1-.31,1.47A3.7,3.7,0,0,0,44,10.13C44,10,44.51,10.16,44.18,11ZM32.11,9.36a3.22,3.22,0,0,0,2.24-3c0-1.1-.64-1.34-1.19-.58a6,6,0,0,0-1,3A1.68,1.68,0,0,0,32.11,9.36Zm12.43,3.39.11.21h-.09l-.1-.2h-.13V13h-.09v-.59h.22a.2.2,0,0,1,.21.2A.19.19,0,0,1,44.54,12.75Zm0-.18a.11.11,0,0,0-.11-.12h-.14v.23h.14A.11.11,0,0,0,44.58,12.57ZM36.8,4.63a4.28,4.28,0,0,0,1-1.76c.47-1.26.36-2-.11-2.34a1.24,1.24,0,0,0-.79-.18.59.59,0,0,0-.53.75,5.85,5.85,0,0,1,.19,1.48,5.25,5.25,0,0,1-.29,1.94A.32.32,0,0,0,36.8,4.63Zm-9-.18a1.51,1.51,0,0,0,1.72-1.22,1.49,1.49,0,0,0-.83-1.93A1.51,1.51,0,0,0,27,2.51,1.52,1.52,0,0,0,27.82,4.45Zm-24.95,10H2.26a.13.13,0,0,0-.13.13V16.2H1.58V14.61a.12.12,0,0,0-.13-.13H.85a.12.12,0,0,0-.13.13v4.12a.12.12,0,0,0,.13.13h.6a.12.12,0,0,0,.13-.13V16.9h.55v1.83a.13.13,0,0,0,.13.13h.61A.13.13,0,0,0,3,18.73V14.61A.13.13,0,0,0,2.87,14.48Zm2.87,2.19c0,1.88-.48,2.23-1.15,2.23s-1.16-.35-1.16-2.23.48-2.23,1.16-2.23S5.74,14.79,5.74,16.67Zm-.88,0c0-1.44-.07-1.54-.27-1.54s-.28.1-.28,1.54.08,1.54.28,1.54S4.86,18.1,4.86,16.67Zm4-2.19H8.24a.15.15,0,0,0-.15.11l-.28,1.19c-.06.24-.21.83-.21.89s0,.06,0,.06,0,0,0-.06-.15-.65-.21-.89L7,14.59a.14.14,0,0,0-.14-.11H6.31a.12.12,0,0,0-.13.13v4.12a.12.12,0,0,0,.13.13h.53A.13.13,0,0,0,7,18.73V17.07c0-.23,0-.74,0-.83s0-.07,0-.07,0,0,0,.07.1.42.2.83l.16.66a.13.13,0,0,0,.15.11h.12a.13.13,0,0,0,.14-.11l.17-.66c.11-.42.19-.77.2-.83s0-.07,0-.07,0,0,0,.07,0,.6,0,.83v1.66a.12.12,0,0,0,.13.13h.53A.13.13,0,0,0,9,18.73V14.61A.13.13,0,0,0,8.83,14.48Zm2.25,3.68h-.71V16.91h.57a.13.13,0,0,0,.13-.13v-.44a.12.12,0,0,0-.13-.13h-.57v-1h.69a.13.13,0,0,0,.13-.13v-.44a.12.12,0,0,0-.13-.13H9.64a.12.12,0,0,0-.13.13v4.12a.12.12,0,0,0,.13.13h1.44a.12.12,0,0,0,.13-.13v-.44A.13.13,0,0,0,11.08,18.16Zm3.14-3.68h-.58a.15.15,0,0,0-.15.11l-.28,1.19c-.07.24-.22.83-.22.89s0,.06,0,.06,0,0,0-.06-.15-.65-.21-.89l-.29-1.19a.14.14,0,0,0-.14-.11h-.59a.12.12,0,0,0-.13.13v4.12a.12.12,0,0,0,.13.13h.53a.13.13,0,0,0,.13-.13V17.07c0-.23,0-.74,0-.83s0-.07,0-.07,0,0,0,.07.1.42.2.83l.16.66a.13.13,0,0,0,.15.11H13a.13.13,0,0,0,.14-.11l.17-.66a8,8,0,0,0,.19-.83c0-.06,0-.07,0-.07s0,0,0,.07,0,.6,0,.83v1.66a.12.12,0,0,0,.13.13h.52a.12.12,0,0,0,.13-.13V14.61A.12.12,0,0,0,14.22,14.48Zm3,4c0,.09,0,.2,0,.26a.12.12,0,0,1-.12.12h-.54c-.08,0-.12,0-.14-.12l-.14-.9h-.65l-.14.9a.12.12,0,0,1-.13.12h-.54a.12.12,0,0,1-.13-.12c0-.06,0-.17,0-.26l.77-3.88a.13.13,0,0,1,.14-.12h.64a.12.12,0,0,1,.13.12Zm-1-1.22-.13-.87c0-.15-.07-.65-.07-.71s0-.07,0-.07,0,0,0,.07-.05.56-.07.71l-.14.87Zm3.63-.6c0,1.63-.46,2.2-1.19,2.2h-1a.12.12,0,0,1-.13-.13V14.61a.12.12,0,0,1,.13-.13h1C19.36,14.48,19.82,15,19.82,16.66Zm-.87,0c0-1.2-.09-1.53-.41-1.53H18.4v3.08h.14C18.86,18.21,19,17.88,19,16.66Zm2.88,1.5h-.71V16.91h.57a.13.13,0,0,0,.13-.13v-.44a.12.12,0,0,0-.13-.13h-.57v-1h.69a.13.13,0,0,0,.13-.13v-.44a.12.12,0,0,0-.13-.13H20.39a.12.12,0,0,0-.13.13v4.12a.12.12,0,0,0,.13.13h1.44a.12.12,0,0,0,.13-.13v-.44A.13.13,0,0,0,21.83,18.16ZM24,14.48h-.6a.12.12,0,0,0-.13.13v4.12a.12.12,0,0,0,.13.13H24a.12.12,0,0,0,.13-.13V14.61A.12.12,0,0,0,24,14.48Zm2.13,1.46h.47a.15.15,0,0,0,.17-.16c0-1-.42-1.34-1-1.34-.85,0-1.18.63-1.18,2.23s.33,2.23,1.18,2.23c.59,0,1-.33,1-1.37a.16.16,0,0,0-.17-.17h-.47c-.09,0-.13.08-.12.21,0,.46,0,.65-.25.65s-.3-.33-.3-1.55,0-1.55.3-1.55.28.18.25.62C26,15.87,26.05,15.94,26.14,15.94Zm2.59,2.22H28V16.91h.58a.13.13,0,0,0,.13-.13v-.44a.13.13,0,0,0-.13-.13H28v-1h.69a.13.13,0,0,0,.13-.13v-.44a.12.12,0,0,0-.13-.13H27.29a.13.13,0,0,0-.13.13v4.12a.13.13,0,0,0,.13.13h1.44a.12.12,0,0,0,.13-.13v-.44A.13.13,0,0,0,28.73,18.16Zm2.9-2.22h.47a.15.15,0,0,0,.17-.16c0-1-.42-1.34-1-1.34-.85,0-1.19.63-1.19,2.23s.34,2.23,1.19,2.23c.59,0,1-.33,1-1.37a.16.16,0,0,0-.17-.17h-.47c-.09,0-.13.08-.12.21,0,.46,0,.65-.25.65S31,17.89,31,16.67s0-1.55.31-1.55.28.18.25.62C31.5,15.87,31.54,15.94,31.63,15.94Zm3.5,2.8a.12.12,0,0,1-.12.12h-.5c-.33,0-.38-.13-.47-.53l-.24-1.08c0-.1-.08-.13-.18-.13h-.11v1.61a.12.12,0,0,1-.13.13h-.6a.12.12,0,0,1-.13-.13V14.61a.12.12,0,0,1,.13-.13h1.1c.77,0,1,.47,1,1.26s-.2,1.1-.65,1.23c.25.08.32.19.41.53l.27,1a.18.18,0,0,0,.09.14C35.1,18.65,35.13,18.67,35.13,18.74Zm-1.07-2.93c0-.54-.08-.72-.39-.72h-.16v1.44h.2C34,16.53,34.06,16.36,34.06,15.81ZM37,18.16h-.71V16.91h.58a.13.13,0,0,0,.13-.13v-.44a.13.13,0,0,0-.13-.13h-.58v-1H37a.13.13,0,0,0,.13-.13v-.44a.12.12,0,0,0-.13-.13H35.54a.13.13,0,0,0-.13.13v4.12a.13.13,0,0,0,.13.13H37a.12.12,0,0,0,.13-.13v-.44A.13.13,0,0,0,37,18.16Zm2.84.32c0,.09,0,.2,0,.26a.12.12,0,0,1-.12.12H39.2a.12.12,0,0,1-.14-.12l-.14-.9h-.65l-.14.9a.12.12,0,0,1-.14.12h-.54a.12.12,0,0,1-.12-.12c0-.06,0-.17,0-.26l.77-3.88a.12.12,0,0,1,.13-.12h.65a.12.12,0,0,1,.13.12Zm-1-1.22-.13-.87c0-.15-.07-.65-.07-.71s0-.07,0-.07-.05,0-.05.07,0,.56-.06.71l-.14.87Zm4-2.78h-.58a.15.15,0,0,0-.15.11l-.28,1.19c-.07.24-.22.83-.22.89s0,.06,0,.06,0,0,0-.06-.15-.65-.21-.89l-.29-1.19a.14.14,0,0,0-.14-.11h-.59a.12.12,0,0,0-.13.13v4.12a.12.12,0,0,0,.13.13h.52a.12.12,0,0,0,.13-.13V17.07c0-.23,0-.74,0-.83s0-.07,0-.07,0,0,0,.07.09.42.2.83l.16.66a.13.13,0,0,0,.14.11h.13a.13.13,0,0,0,.14-.11l.16-.66c.11-.42.2-.77.2-.83s0-.07,0-.07,0,0,0,.07,0,.6,0,.83v1.66a.12.12,0,0,0,.13.13h.52a.12.12,0,0,0,.13-.13V14.61A.12.12,0,0,0,42.83,14.48Z"/></svg>